<svg width="21" height="21" viewBox="0 0 21 21" fill="none" xmlns="http://www.w3.org/2000/svg">
<g id="checkbox-square-fill">
<path id="checkbox-square-fill_2" d="M15.4585 18.6191H6.0835C3.86683 18.6191 2.646 17.3983 2.646 15.1816V5.80664C2.646 3.58997 3.86683 2.36914 6.0835 2.36914H15.4585C17.6752 2.36914 18.896 3.58997 18.896 5.80664V15.1816C18.896 17.3983 17.6752 18.6191 15.4585 18.6191ZM6.0835 3.61914C4.55016 3.61914 3.896 4.27331 3.896 5.80664V15.1816C3.896 16.715 4.55016 17.3691 6.0835 17.3691H15.4585C16.9918 17.3691 17.646 16.715 17.646 15.1816V5.80664C17.646 4.27331 16.9918 3.61914 15.4585 3.61914H6.0835ZM13.896 16.1191H7.646C6.05766 16.1191 5.146 15.2083 5.146 13.6191V7.36914C5.146 5.77997 6.05766 4.86914 7.646 4.86914H13.896C15.4843 4.86914 16.396 5.77997 16.396 7.36914V13.6191C16.396 15.2083 15.4843 16.1191 13.896 16.1191ZM7.646 6.11914C6.74683 6.11914 6.396 6.46914 6.396 7.36914V13.6191C6.396 14.5191 6.74683 14.8691 7.646 14.8691H13.896C14.7952 14.8691 15.146 14.5191 15.146 13.6191V7.36914C15.146 6.46914 14.7952 6.11914 13.896 6.11914H7.646Z" fill="#2D2A2A"/>
</g>
</svg>
