<svg width="10" height="18" viewBox="0 0 10 18" fill="none" xmlns="http://www.w3.org/2000/svg">
<path d="M2.49 11.1456H0C0.0272173 12.3218 0.486058 13.4469 1.28915 14.3067C2.1401 15.0699 3.23674 15.5023 4.37958 15.5252V17.0263H5.42402V15.5252C6.1762 15.4973 6.91465 15.3153 7.59362 14.9904C8.10137 14.7386 8.55913 14.3967 8.94458 13.9813C9.25425 13.6478 9.49173 13.254 9.64213 12.8246C9.75667 12.5122 9.82302 12.1843 9.83891 11.852C9.83649 11.5148 9.81586 11.1779 9.7771 10.8429C9.72821 10.4402 9.59266 10.0529 9.37976 9.70763C9.10803 9.28001 8.75383 8.9108 8.33785 8.62157C7.72358 8.21038 7.03974 7.91419 6.31961 7.74742C6.15142 7.70033 5.99543 7.65828 5.85163 7.62128L5.42402 7.52541V4.39462C5.82398 4.39708 6.20066 4.58309 6.44575 4.89918C6.73053 5.23452 6.88699 5.66009 6.88724 6.10003H9.3949C9.37493 5.54932 9.24273 5.00849 9.00639 4.51067C8.79757 4.0806 8.50312 3.69772 8.14107 3.3855C7.77712 3.07907 7.36152 2.83988 6.91373 2.67912C6.4329 2.50431 5.9327 2.38826 5.42402 2.3335V0.973707H4.37958V2.3335C3.85596 2.36758 3.33926 2.47151 2.84319 2.64254C2.36739 2.80287 1.92462 3.04819 1.53638 3.36658C1.15703 3.68367 0.848481 4.07688 0.6307 4.52076C0.393045 5.01628 0.275091 5.56068 0.286338 6.11012C0.267733 6.61894 0.369287 7.12498 0.582766 7.58722C0.774889 7.97177 1.0492 8.30938 1.38628 8.57616C1.72979 8.84385 2.11277 9.05662 2.52154 9.20686C2.942 9.3658 3.37172 9.50413 3.81069 9.62186C3.92842 9.6454 4.03732 9.67189 4.13739 9.70133C4.23746 9.73076 4.31693 9.75725 4.37579 9.78079V13.4767C3.85464 13.3819 3.37785 13.1218 3.01601 12.735C2.6351 12.2969 2.44564 11.7245 2.49 11.1456ZM5.42402 13.4767V10.0861C5.951 10.2011 6.45137 10.4152 6.89859 10.7168C7.19898 10.9726 7.35964 11.3562 7.33125 11.7498C7.33788 12.0054 7.27697 12.2582 7.15465 12.4827C7.0406 12.6845 6.88752 12.8616 6.70434 13.0037C6.51832 13.1468 6.30931 13.2573 6.08625 13.3304C5.87127 13.4023 5.64929 13.4513 5.42402 13.4767ZM4.37958 4.39462V7.27313C3.93941 7.19845 3.52242 7.0232 3.16107 6.76101C2.90672 6.53295 2.77019 6.2014 2.79021 5.86037C2.78296 5.63873 2.82609 5.41834 2.91635 5.21579C3.00224 5.03934 3.12634 4.88421 3.27964 4.76169C3.43141 4.63875 3.60522 4.54585 3.79177 4.48796C3.98174 4.42684 4.18001 4.39536 4.37958 4.39462Z" fill="#232020" fill-opacity="0.5"/>
</svg>
