<svg width="40" height="41" viewBox="0 0 40 41" fill="none" xmlns="http://www.w3.org/2000/svg">
<mask id="mask0_802_14724" style="mask-type:alpha" maskUnits="userSpaceOnUse" x="0" y="0" width="40" height="41">
<rect y="0.741547" width="40" height="40" rx="20" fill="#D9D9D9"/>
</mask>
<g mask="url(#mask0_802_14724)">
<path d="M19.8659 34.09C21.2213 34.09 22.32 32.9913 22.32 31.6359V24.1239C22.32 22.9205 23.2955 21.945 24.4989 21.945C25.5953 21.945 26.5209 21.1303 26.6601 20.0427L26.7075 19.6722C26.8759 18.3555 25.8501 17.19 24.5227 17.19C23.3062 17.19 22.32 16.2039 22.32 14.9874V14.1617C22.32 12.79 22.7017 11.85 24.6717 11.85H24.9393C26.1722 11.85 27.1717 10.8505 27.1717 9.61758C27.1717 8.47676 26.3116 7.5111 25.172 7.45841C24.6191 7.43285 24.0654 7.42116 23.5117 7.42336C22.6801 7.3627 21.8453 7.48457 21.0658 7.78044C20.2863 8.07631 19.5809 8.53902 18.999 9.13617C18.417 9.73332 17.9727 10.4505 17.6971 11.2374C17.4215 12.0243 17.3212 12.862 17.4034 13.6917V15.1467C17.4034 16.2706 16.4923 17.1817 15.3684 17.1817C14.2445 17.1817 13.3334 18.0928 13.3334 19.2167V19.8975C13.3334 21.0237 14.2463 21.9367 15.3725 21.9367C16.4987 21.9367 17.4117 22.8497 17.4117 23.9759V31.6359C17.4117 32.9913 18.5105 34.09 19.8659 34.09Z" fill="#010101"/>
</g>
</svg>
