<svg width="40" height="41" viewBox="0 0 40 41" fill="none" xmlns="http://www.w3.org/2000/svg">
<mask id="mask0_802_14730" style="mask-type:alpha" maskUnits="userSpaceOnUse" x="0" y="0" width="40" height="41">
<rect y="0.741547" width="40" height="40" rx="20" fill="#D9D9D9"/>
</mask>
<g mask="url(#mask0_802_14730)">
<path d="M9.30286 15.3535C10.3216 13.3654 11.8845 11.6942 13.8169 10.5265C15.7492 9.35886 17.9748 8.74085 20.2449 8.74155C22.5586 8.74155 24.6129 9.32554 26.3647 10.3426C27.5757 11.0456 27.5959 12.6918 26.596 13.6721C25.6625 14.5873 24.1815 14.5466 22.9753 14.0423C22.1358 13.6913 21.2172 13.5139 20.2449 13.5139C17.0551 13.5139 14.3551 15.6259 13.3939 18.4615C13.149 19.1815 13.0094 19.9495 13.0094 20.7415C13.0094 21.5335 13.149 22.3015 13.3939 23.0215C14.3563 25.8583 17.0551 27.9691 20.2449 27.9691C21.8918 27.9691 23.2939 27.5431 24.391 26.8231C25.027 26.4127 25.5716 25.8802 25.9917 25.2577C26.6427 24.2932 25.7607 23.2015 24.597 23.2015H22.5657C21.284 23.2015 20.2449 22.1625 20.2449 20.8807C20.2449 19.599 21.284 18.5599 22.5657 18.5599H29.3096C30.7393 18.5599 32 19.5843 32 21.0139C32 24.6691 30.6653 27.7459 28.3486 29.8339C26.3233 31.6675 23.551 32.7415 20.2449 32.7415C18.6367 32.7421 17.0441 32.4322 15.5582 31.8294C14.0723 31.2265 12.7222 30.3426 11.585 29.2282C10.4478 28.1139 9.54592 26.7907 8.93077 25.3345C8.31564 23.8783 7.99936 22.3176 8 20.7415C8 18.8047 8.47265 16.9735 9.30286 15.3535Z" fill="#010101"/>
</g>
</svg>
