<svg width="41" height="40" viewBox="0 0 41 40" fill="none" xmlns="http://www.w3.org/2000/svg">
<path d="M36.2949 15.1417L23.9414 4.98179C21.9464 3.34512 19.0549 3.34345 17.0599 4.98179L4.70661 15.1401C4.17494 15.5784 4.09657 16.3651 4.5349 16.9001C4.97323 17.4351 5.76162 17.5085 6.29495 17.0718L7.99986 15.6684V30.0001C7.99986 33.8168 10.0165 35.8334 13.8332 35.8334H27.1665C30.9832 35.8334 32.9999 33.8168 32.9999 30.0001V15.6701L34.7048 17.0735C34.9381 17.2651 35.2199 17.3585 35.4999 17.3585C35.8599 17.3585 36.2182 17.2034 36.4648 16.9034C36.9048 16.3667 36.8266 15.58 36.2949 15.1417ZM24.6665 33.3334H16.3332V27.5001C16.3332 25.1984 18.1982 23.3334 20.4999 23.3334C22.8015 23.3334 24.6665 25.1984 24.6665 27.5001V33.3334Z" fill="#2D2A2A"/>
</svg>
