<svg width="21" height="21" viewBox="0 0 21 21" fill="none" xmlns="http://www.w3.org/2000/svg">
<g id="Mask group">
<mask id="mask0_2720_849" style="mask-type:alpha" maskUnits="userSpaceOnUse" x="0" y="0" width="21" height="21">
<rect id="Rectangle 846" x="0.350952" y="0.278191" width="20" height="20" fill="#D9D9D9"/>
</mask>
<g mask="url(#mask0_2720_849)">
<path id="Vector" d="M14.9169 16.9449V14.8976H10.6435C9.96561 14.9128 9.29855 14.7188 8.72679 14.34C8.16626 13.9527 7.72516 13.4055 7.45635 12.7643C7.14499 12.0234 6.99214 11.221 7.00836 10.4128C6.98294 9.59002 7.11908 8.77053 7.4085 8.00427C7.66955 7.37292 8.12615 6.8503 8.70578 6.51942V10.6067H9.74875V6.19457C9.93332 6.15804 10.1208 6.14017 10.3087 6.14124C10.5043 6.14168 10.6994 6.15953 10.892 6.19457V10.6067H11.935V6.52063C12.5315 6.84552 12.9997 7.37735 13.2579 8.02366C13.553 8.84952 13.6889 9.72757 13.6581 10.6079H16.1838C16.194 9.64297 16.0199 8.68552 15.6717 7.79094C15.3469 6.95654 14.8429 6.21028 14.1982 5.60912C13.5527 5.0115 12.776 4.58741 11.9362 4.37397V3.61154H10.8932V4.18366L10.6179 4.17518C10.5549 4.16952 10.4631 4.16669 10.3426 4.16669C10.0727 4.16669 9.87435 4.17275 9.74758 4.18487V3.61154H8.70461V4.37639C7.89079 4.59122 7.13579 4.99859 6.49854 5.56669C5.87347 6.12243 5.37329 6.81382 5.03325 7.59215C4.69046 8.37023 4.51453 9.21643 4.51762 10.0721C4.51644 10.7326 4.60641 11.3898 4.78478 12.0237C4.95208 12.6312 5.21714 13.205 5.56874 13.7206C5.89158 14.2009 6.31217 14.6015 6.80069 14.894V14.9643H5.15458V16.9449H14.9169Z" fill="#212121"/>
</g>
</g>
</svg>
