<svg width="15" height="15" viewBox="0 0 15 15" fill="none" xmlns="http://www.w3.org/2000/svg">
<g id="Mask group">
<mask id="mask0_404_8243" style="mask-type:alpha" maskUnits="userSpaceOnUse" x="0" y="0" width="15" height="15">
<rect id="Rectangle 846" x="0.5" y="0.523193" width="14" height="14" fill="#D9D9D9"/>
</mask>
<g mask="url(#mask0_404_8243)">
<path id="Vector" d="M10.696 12.1899V10.7568H7.70468C7.23013 10.7674 6.76319 10.6316 6.36295 10.3665C5.97058 10.0953 5.66181 9.71234 5.47364 9.26345C5.25569 8.74481 5.14869 8.18319 5.16005 7.61739C5.14226 7.04147 5.23755 6.46783 5.44015 5.93145C5.62288 5.4895 5.9425 5.12367 6.34825 4.89205V7.75314H7.07833V4.66466C7.20752 4.63908 7.33878 4.62658 7.4703 4.62732C7.60718 4.62764 7.74378 4.64013 7.87861 4.66466V7.75314H8.60869V4.8929C9.02628 5.12032 9.35396 5.4926 9.53476 5.94502C9.74128 6.52312 9.83644 7.13776 9.81486 7.75399H11.5829C11.59 7.07854 11.4682 6.40832 11.2244 5.78211C10.997 5.19804 10.6443 4.67566 10.193 4.25484C9.74109 3.83651 9.19741 3.53964 8.60952 3.39023V2.85654H7.87944V3.25702L7.68672 3.25108C7.64262 3.24712 7.57838 3.24514 7.494 3.24514C7.30508 3.24514 7.16625 3.24938 7.07751 3.25787V2.85654H6.34742V3.39193C5.77775 3.54231 5.24925 3.82747 4.80318 4.22514C4.36563 4.61416 4.0155 5.09813 3.77747 5.64296C3.53752 6.18762 3.41437 6.77996 3.41653 7.37896C3.41571 7.84126 3.47869 8.3013 3.60354 8.74502C3.72065 9.17032 3.9062 9.57195 4.15232 9.9329C4.3783 10.2691 4.67272 10.5495 5.01469 10.7542V10.8034H3.86241V12.1899H10.696Z" fill="#E17055"/>
</g>
</g>
</svg>
