<svg width="24" height="24" viewBox="0 0 24 24" fill="none" xmlns="http://www.w3.org/2000/svg">
<g id="Group 6881">
<circle id="Ellipse 157" cx="12" cy="12" r="12" fill="#E17055"/>
<g id="Mask group">
<mask id="mask0_2702_6097" style="mask-type:alpha" maskUnits="userSpaceOnUse" x="3" y="3" width="18" height="18">
<rect id="Rectangle 846" x="3" y="3" width="18" height="18" fill="#D9D9D9"/>
</mask>
<g mask="url(#mask0_2702_6097)">
<path id="Vector" d="M16.1094 18V16.1575H12.2634C11.6532 16.1712 11.0529 15.9965 10.5383 15.6556C10.0338 15.307 9.63682 14.8146 9.39489 14.2375C9.11467 13.5706 8.9771 12.8485 8.99171 12.1211C8.96883 11.3806 9.09135 10.6431 9.35183 9.95346C9.58677 9.38524 9.99771 8.91488 10.5194 8.61709V12.2956H11.4581V8.32473C11.6242 8.29185 11.7929 8.27577 11.962 8.27673C12.138 8.27713 12.3136 8.29319 12.487 8.32473V12.2956H13.4257V8.61818C13.9626 8.91058 14.3839 9.38923 14.6163 9.97091C14.8819 10.7142 15.0042 11.5044 14.9765 12.2967H17.2496C17.2588 11.4283 17.1021 10.5666 16.7887 9.76145C16.4964 9.0105 16.0428 8.33887 15.4626 7.79782C14.8816 7.25996 14.1826 6.87828 13.4267 6.68618V6H12.4881V6.51491L12.2403 6.50727C12.1836 6.50218 12.101 6.49964 11.9925 6.49964C11.7496 6.49964 11.5711 6.50509 11.457 6.516V6H10.5183V6.68836C9.78589 6.88171 9.10639 7.24835 8.53286 7.75964C7.9703 8.2598 7.52014 8.88205 7.2141 9.58255C6.90559 10.2828 6.74726 11.0444 6.75004 11.8145C6.74898 12.4089 6.82995 13.0004 6.99048 13.5709C7.14105 14.1177 7.3796 14.6341 7.69605 15.0982C7.9866 15.5304 8.36514 15.891 8.80481 16.1542V16.2175H7.3233V18H16.1094Z" fill="white"/>
</g>
</g>
</g>
</svg>
