<svg width="15" height="14" viewBox="0 0 15 14" fill="none" xmlns="http://www.w3.org/2000/svg">
<g id="Mask group">
<mask id="mask0_415_9580" style="mask-type:alpha" maskUnits="userSpaceOnUse" x="0" y="0" width="15" height="14">
<rect id="Rectangle 846" x="0.919922" width="14" height="14" fill="#D9D9D9"/>
</mask>
<g mask="url(#mask0_415_9580)">
<path id="Vector" d="M11.1154 11.6666V10.2336H8.12412C7.64956 10.2442 7.18262 10.1084 6.78238 9.84325C6.39001 9.57209 6.08124 9.18911 5.89308 8.74022C5.67512 8.22158 5.56813 7.65996 5.57949 7.09416C5.56169 6.51825 5.65699 5.94461 5.85958 5.40822C6.04232 4.96628 6.36194 4.60044 6.76768 4.36883V7.22992H7.49776V4.14143C7.62695 4.11586 7.75821 4.10336 7.88973 4.1041C8.02661 4.10441 8.16322 4.1169 8.29805 4.14143V7.22992H9.02813V4.36968C9.44572 4.5971 9.7734 4.96938 9.95419 5.4218C10.1607 5.9999 10.2559 6.61453 10.2343 7.23077H12.0023C12.0094 6.55531 11.8876 5.8851 11.6438 5.25889C11.4165 4.67481 11.0637 4.15243 10.6124 3.73162C10.1605 3.31328 9.61685 3.01642 9.02895 2.86701V2.33331H8.29887V2.7338L8.10615 2.72786C8.06205 2.7239 7.99782 2.72192 7.91343 2.72192C7.72452 2.72192 7.58568 2.72616 7.49694 2.73465V2.33331H6.76686V2.86871C6.19719 3.01909 5.66869 3.30425 5.22261 3.70192C4.78506 4.09093 4.43493 4.57491 4.19691 5.11974C3.95695 5.6644 3.83381 6.25673 3.83597 6.85574C3.83514 7.31804 3.89812 7.77807 4.02298 8.2218C4.14009 8.64709 4.32563 9.04872 4.57175 9.40968C4.79774 9.74587 5.09215 10.0263 5.43412 10.231V10.2802H4.28184V11.6666H11.1154Z" fill="#2D2A2A"/>
</g>
</g>
</svg>
