<svg width="27" height="28" viewBox="0 0 27 28" fill="none" xmlns="http://www.w3.org/2000/svg">
<path opacity="0.4" d="M13.3053 2.84768C8.10849 2.84768 3.88074 7.19096 3.88074 12.5298C3.88074 18.2058 9.01324 21.689 12.4094 23.9934L12.9971 24.3944C13.0902 24.4582 13.1977 24.4901 13.3042 24.4901C13.4106 24.4901 13.5182 24.4582 13.6113 24.3944L14.199 23.9934C17.5951 21.689 22.7276 18.2058 22.7276 12.5298C22.7299 7.19096 18.5021 2.84768 13.3053 2.84768Z" fill="#010101"/>
<path d="M13.3053 15.3775C14.8362 15.3775 16.0772 14.1025 16.0772 12.5298C16.0772 10.9571 14.8362 9.68212 13.3053 9.68212C11.7744 9.68212 10.5333 10.9571 10.5333 12.5298C10.5333 14.1025 11.7744 15.3775 13.3053 15.3775Z" fill="#010101"/>
</svg>
