<svg width="143" height="41" viewBox="0 0 143 41" fill="none" xmlns="http://www.w3.org/2000/svg">
<path d="M18.208 11.848C20.4907 11.848 22.656 12.392 24.704 13.48L22.496 28.36C22.0907 31.176 21.1947 33.2027 19.808 34.44C18.4427 35.6773 16.544 36.296 14.112 36.296C13.1093 36.296 12.0533 36.136 10.944 35.816C9.856 35.496 8.87467 35.0693 8 34.536L9.408 31.688C10.112 32.0933 10.8587 32.4133 11.648 32.648C12.4587 32.904 13.248 33.032 14.016 33.032C15.2107 33.032 16.2027 32.7333 16.992 32.136C17.7813 31.56 18.2933 30.4293 18.528 28.744L18.784 26.888C18.1653 27.6133 17.4613 28.1893 16.672 28.616C15.8827 29.0427 15.04 29.256 14.144 29.256C12.416 29.256 11.072 28.6693 10.112 27.496C9.152 26.3227 8.672 24.7547 8.672 22.792C8.672 21.0213 9.00267 19.304 9.664 17.64C10.3253 15.976 11.3707 14.6 12.8 13.512C14.2293 12.4027 16.032 11.848 18.208 11.848ZM18.144 14.856C16.9493 14.856 15.9573 15.2507 15.168 16.04C14.3787 16.8293 13.8027 17.8213 13.44 19.016C13.0773 20.2107 12.896 21.448 12.896 22.728C12.896 23.9227 13.1093 24.7973 13.536 25.352C13.9627 25.8853 14.5493 26.152 15.296 26.152C16.0213 26.152 16.6933 25.9173 17.312 25.448C17.952 24.9573 18.5813 24.2853 19.2 23.432L20.48 15.304C20.0747 15.1333 19.6907 15.016 19.328 14.952C18.9867 14.888 18.592 14.856 18.144 14.856Z" fill="#E17055"/>
<path d="M42.119 16.328C42.119 18.504 41.127 20.0827 39.143 21.064C37.159 22.0453 34.503 22.7067 31.175 23.048C31.2603 25.3947 32.359 26.568 34.471 26.568C35.239 26.568 35.975 26.4507 36.679 26.216C37.383 25.96 38.119 25.5547 38.887 25L40.455 27.56C38.407 29.0107 36.263 29.736 34.023 29.736C31.7617 29.736 30.0337 29.1173 28.839 27.88C27.6443 26.6213 27.047 24.8933 27.047 22.696C27.047 20.9893 27.3563 19.3147 27.975 17.672C28.615 16.008 29.6177 14.6213 30.983 13.512C32.3697 12.4027 34.1297 11.848 36.263 11.848C37.5003 11.848 38.5563 12.0507 39.431 12.456C40.327 12.8613 40.999 13.4053 41.447 14.088C41.895 14.7707 42.119 15.5173 42.119 16.328ZM31.367 20.328C33.6283 20.1147 35.2923 19.6987 36.359 19.08C37.4257 18.44 37.959 17.576 37.959 16.488C37.959 16.04 37.8097 15.6453 37.511 15.304C37.2123 14.9413 36.7217 14.76 36.039 14.76C34.695 14.76 33.639 15.2933 32.871 16.36C32.1243 17.4267 31.623 18.7493 31.367 20.328Z" fill="#E17055"/>
<path d="M48.9475 24.168C48.9048 24.5947 48.8835 24.8613 48.8835 24.968C48.8835 25.48 48.9902 25.8533 49.2035 26.088C49.4168 26.3013 49.7582 26.408 50.2275 26.408C50.8248 26.408 51.5502 26.2053 52.4035 25.8L53.5555 28.52C52.2542 29.3307 50.8355 29.736 49.2995 29.736C47.8702 29.736 46.7608 29.3627 45.9715 28.616C45.2035 27.848 44.8195 26.7707 44.8195 25.384C44.8195 25 44.8515 24.584 44.9155 24.136L46.1635 15.272H43.5395L43.9555 12.328H46.7395L47.7955 8.488L51.1875 8.104L50.6115 12.328H54.5155L53.6515 15.272H50.1955L48.9475 24.168Z" fill="#E17055"/>
<path d="M67.4495 11.72C68.6655 11.72 69.6148 12.0827 70.2975 12.808C70.9802 13.5333 71.3215 14.5467 71.3215 15.848C71.3215 16.3173 71.3002 16.68 71.2575 16.936L69.5295 29.256H64.5695L66.1375 18.024C66.1802 17.5973 66.2015 17.32 66.2015 17.192C66.2015 16.7013 66.1162 16.36 65.9455 16.168C65.7748 15.9547 65.5188 15.848 65.1775 15.848C63.9828 15.848 62.7135 17.2027 61.3695 19.912L60.0575 29.256H55.0975L58.4255 5.512L63.4495 5L62.0415 15.112C62.6602 14.088 63.4388 13.2667 64.3775 12.648C65.3375 12.0293 66.3615 11.72 67.4495 11.72Z" fill="#E17055"/>
<path d="M80.4248 29.8C78.1848 29.8 76.4354 29.16 75.1768 27.88C73.9394 26.6 73.3208 24.8293 73.3208 22.568C73.3208 20.8187 73.6301 19.1227 74.2487 17.48C74.8674 15.816 75.8808 14.44 77.2887 13.352C78.7181 12.264 80.5527 11.72 82.7927 11.72C85.0114 11.72 86.7501 12.36 88.0088 13.64C89.2674 14.92 89.8968 16.6587 89.8968 18.856C89.8968 20.6053 89.5874 22.312 88.9688 23.976C88.3501 25.64 87.3261 27.0267 85.8968 28.136C84.4888 29.2453 82.6647 29.8 80.4248 29.8ZM80.7767 26.088C82.2487 26.088 83.2834 25.3093 83.8808 23.752C84.4781 22.1733 84.7874 20.4667 84.8088 18.632C84.8088 17.5227 84.6061 16.712 84.2008 16.2C83.8167 15.688 83.2301 15.432 82.4408 15.432C80.9688 15.432 79.9234 16.2213 79.3047 17.8C78.7074 19.3787 78.4088 21.0747 78.4088 22.888C78.4088 23.9973 78.6007 24.808 78.9847 25.32C79.3688 25.832 79.9661 26.088 80.7767 26.088Z" fill="#E17055"/>
<path d="M112.4 11.72C113.573 11.72 114.49 12.0827 115.152 12.808C115.834 13.5333 116.176 14.536 116.176 15.816C116.176 16.2853 116.154 16.648 116.112 16.904L114.384 29.256H109.424L111.024 18.024C111.066 17.5973 111.088 17.32 111.088 17.192C111.088 16.296 110.757 15.848 110.096 15.848C109.05 15.848 107.941 17.1387 106.768 19.72L105.424 29.256H100.464L102.064 18.024C102.106 17.5973 102.128 17.3307 102.128 17.224C102.128 16.3067 101.786 15.848 101.104 15.848C100.549 15.848 99.9837 16.2107 99.4078 16.936C98.8318 17.6613 98.2984 18.632 97.8078 19.848L96.4958 29.256H91.5358L93.9038 12.264H98.1917L98.1278 15.048C98.8104 13.9813 99.5997 13.16 100.496 12.584C101.413 12.008 102.394 11.72 103.44 11.72C104.442 11.72 105.274 11.9973 105.936 12.552C106.597 13.0853 107.002 13.8533 107.152 14.856C107.856 13.8747 108.666 13.1067 109.584 12.552C110.501 11.9973 111.44 11.72 112.4 11.72Z" fill="#E17055"/>
<path d="M134.037 16.36C134.037 18.5147 133.023 20.0933 130.996 21.096C128.991 22.0987 126.367 22.76 123.125 23.08C123.231 25.0853 124.245 26.088 126.165 26.088C126.869 26.088 127.562 25.96 128.244 25.704C128.949 25.448 129.695 25.0533 130.485 24.52L132.277 27.528C130.186 29.0427 127.935 29.8 125.524 29.8C123.114 29.8 121.279 29.16 120.021 27.88C118.762 26.5787 118.132 24.8187 118.132 22.6C118.132 20.8933 118.452 19.208 119.092 17.544C119.754 15.88 120.81 14.4933 122.26 13.384C123.711 12.2747 125.546 11.72 127.765 11.72C129.749 11.72 131.285 12.1573 132.373 13.032C133.482 13.9067 134.037 15.016 134.037 16.36ZM123.349 20.008C125.333 19.88 126.773 19.5067 127.669 18.888C128.564 18.248 129.013 17.48 129.013 16.584C129.013 16.1787 128.884 15.8267 128.629 15.528C128.373 15.2293 127.956 15.08 127.381 15.08C126.271 15.08 125.386 15.5493 124.725 16.488C124.063 17.4267 123.604 18.6 123.349 20.008Z" fill="#E17055"/>
</svg>
