<svg width="24" height="25" viewBox="0 0 24 25" fill="none" xmlns="http://www.w3.org/2000/svg">
<g id="Mask group">
<mask id="mask0_802_14874" style="mask-type:alpha" maskUnits="userSpaceOnUse" x="0" y="0" width="24" height="25">
<rect id="Rectangle 875" y="0.206421" width="24" height="24" fill="#D9D9D9"/>
</mask>
<g mask="url(#mask0_802_14874)">
<g id="Component 9 &#226;&#128;&#147; 5">
<g id="Mask Group 19">
<g id="eye-slash">
<path id="Path 560" d="M21.271 9.38026C20.9888 8.93339 20.6816 8.50271 20.351 8.09026C20.2638 7.9796 20.154 7.88864 20.0291 7.82335C19.9042 7.75806 19.7669 7.71991 19.6262 7.71141C19.4855 7.70292 19.3446 7.72426 19.2128 7.77404C19.0809 7.82382 18.961 7.90091 18.861 8.00026L15.861 11.0003C16.0926 11.7159 16.1134 12.4831 15.921 13.2103C15.7424 13.9094 15.3788 14.5475 14.8686 15.0578C14.3583 15.568 13.7202 15.9316 13.021 16.1103C12.2939 16.3026 11.5267 16.2818 10.811 16.0503L8.35105 18.5103C8.23289 18.6268 8.14561 18.771 8.09707 18.9297C8.04853 19.0884 8.04025 19.2567 8.07299 19.4194C8.10574 19.5821 8.17846 19.7341 8.28461 19.8617C8.39077 19.9893 8.52701 20.0885 8.68105 20.1503C9.74011 20.5596 10.8656 20.7698 12.001 20.7703C13.8033 20.757 15.5661 20.241 17.091 19.2803C18.8134 18.1749 20.2602 16.6904 21.321 14.9403C21.7808 14.084 22.0173 13.1257 22.0085 12.1539C21.9998 11.182 21.7461 10.2281 21.271 9.38026ZM14.02 10.1803L9.98005 14.2203C9.44792 13.6827 9.14685 12.9586 9.14105 12.2023C9.1429 11.4446 9.44471 10.7185 9.98047 10.1827C10.5162 9.64692 11.2424 9.34511 12 9.34326C12.7576 9.34855 13.483 9.65004 14.021 10.1833L14.02 10.1803Z" fill="#010101"/>
<path id="Path 561" d="M18.25 5.95226L14.86 9.34226C14.486 8.96489 14.0403 8.6661 13.5492 8.46346C13.058 8.26082 12.5313 8.15841 12 8.16226C11.2011 8.16335 10.4204 8.40099 9.75632 8.84522C9.09229 9.28945 8.57467 9.92037 8.26876 10.6584C7.96285 11.3965 7.88234 12.2086 8.03739 12.9923C8.19244 13.776 8.57611 14.4963 9.14 15.0623L5.76 18.4523H5.75C4.57452 17.4829 3.56172 16.3317 2.75 15.0423C2.2584 14.1747 2 13.1945 2 12.1973C2 11.2001 2.2584 10.2199 2.75 9.35226C3.80195 7.64817 5.2237 6.2025 6.91 5.12226C8.43691 4.16597 10.1984 3.65031 12 3.63226C14.2883 3.66274 16.496 4.48223 18.25 5.95226ZM14.858 12.2023C14.8559 12.9596 14.5541 13.6853 14.0186 14.2208C13.4831 14.7564 12.7573 15.0582 12 15.0603C11.9426 15.0634 11.8851 15.0567 11.83 15.0403L14.84 12.0303C14.8559 12.0861 14.862 12.1443 14.858 12.2023Z" fill="#010101"/>
<path id="Path 562" d="M21.769 2.43124C21.6241 2.28725 21.4282 2.20642 21.224 2.20642C21.0197 2.20642 20.8238 2.28725 20.679 2.43124L2.22897 20.8912C2.08497 21.0361 2.00415 21.232 2.00415 21.4362C2.00415 21.6405 2.08497 21.8364 2.22897 21.9812C2.37439 22.1207 2.56752 22.1993 2.76897 22.2012C2.86975 22.2007 2.96941 22.1801 3.06213 22.1406C3.15485 22.1011 3.23877 22.0435 3.30897 21.9712L21.769 3.51124C21.8424 3.44179 21.901 3.35808 21.941 3.26523C21.981 3.17238 22.0016 3.07234 22.0016 2.97124C22.0016 2.87014 21.981 2.7701 21.941 2.67724C21.901 2.58439 21.8424 2.50068 21.769 2.43124Z" fill="#010101"/>
</g>
</g>
</g>
</g>
</g>
</svg>
