<svg width="22" height="22" viewBox="0 0 22 22" fill="none" xmlns="http://www.w3.org/2000/svg">
<g id="plus">
<path id="plus_2" d="M17.9061 10.9999C17.9061 11.3732 17.6032 11.6761 17.23 11.6761H11.5955V17.3105C11.5955 17.6838 11.2926 17.9867 10.9194 17.9867C10.5461 17.9867 10.2432 17.6838 10.2432 17.3105V11.6761H4.60875C4.23553 11.6761 3.93262 11.3732 3.93262 10.9999C3.93262 10.6267 4.23553 10.3238 4.60875 10.3238H10.2432V4.68932C10.2432 4.31609 10.5461 4.01318 10.9194 4.01318C11.2926 4.01318 11.5955 4.31609 11.5955 4.68932V10.3238H17.23C17.6032 10.3238 17.9061 10.6267 17.9061 10.9999Z" fill="#FAFAFA"/>
</g>
</svg>
