<svg width="44" height="44" viewBox="0 0 44 44" fill="none" xmlns="http://www.w3.org/2000/svg">
<mask id="mask0_802_10484" style="mask-type:alpha" maskUnits="userSpaceOnUse" x="0" y="0" width="44" height="44">
<rect width="44" height="44" fill="#D9D9D9"/>
</mask>
<g mask="url(#mask0_802_10484)">
<path d="M22.0989 22C23.1867 22 24.25 21.6774 25.1545 21.0731C26.059 20.4687 26.7639 19.6098 27.1802 18.6048C27.5965 17.5998 27.7054 16.4939 27.4932 15.427C27.281 14.3601 26.7572 13.3801 25.988 12.6109C25.2188 11.8417 24.2388 11.3179 23.1719 11.1057C22.105 10.8935 20.9991 11.0024 19.9941 11.4187C18.9891 11.8349 18.1301 12.5399 17.5258 13.4444C16.9214 14.3488 16.5989 15.4122 16.5989 16.5C16.5989 17.9587 17.1783 19.3576 18.2098 20.3891C19.2412 21.4205 20.6402 22 22.0989 22Z" fill="#E17055"/>
<path d="M22.0991 24.75C16.5881 24.75 12.1001 28.446 12.1001 33C12.1001 33.1459 12.158 33.2858 12.2612 33.3889C12.3643 33.4921 12.5042 33.55 12.6501 33.55H31.5481C31.694 33.55 31.8339 33.4921 31.937 33.3889C32.0402 33.2858 32.0981 33.1459 32.0981 33C32.0981 28.446 27.6101 24.75 22.0991 24.75Z" fill="#E17055"/>
</g>
</svg>
