<svg width="20" height="20" viewBox="0 0 20 20" fill="none" xmlns="http://www.w3.org/2000/svg">
<g id="radio_button_checked_FILL0_wght400_GRAD0_opsz48">
<path id="Vector" d="M10.0001 13.875C11.0834 13.875 12.0001 13.5 12.7501 12.75C13.5001 12 13.8751 11.0834 13.8751 10C13.8751 8.91669 13.5001 8.00002 12.7501 7.25002C12.0001 6.50002 11.0834 6.12502 10.0001 6.12502C8.91675 6.12502 8.00008 6.50002 7.25008 7.25002C6.50008 8.00002 6.12508 8.91669 6.12508 10C6.12508 11.0834 6.50008 12 7.25008 12.75C8.00008 13.5 8.91675 13.875 10.0001 13.875ZM10.0001 18.3334C8.86119 18.3334 7.7848 18.1146 6.77091 17.6771C5.75703 17.2396 4.87161 16.6424 4.11466 15.8854C3.35772 15.1285 2.7605 14.2431 2.323 13.2292C1.8855 12.2153 1.66675 11.1389 1.66675 10C1.66675 8.84724 1.8855 7.76391 2.323 6.75002C2.7605 5.73613 3.35772 4.85419 4.11466 4.10419C4.87161 3.35419 5.75703 2.76044 6.77091 2.32294C7.7848 1.88544 8.86119 1.66669 10.0001 1.66669C11.1529 1.66669 12.2362 1.88544 13.2501 2.32294C14.264 2.76044 15.1459 3.35419 15.8959 4.10419C16.6459 4.85419 17.2397 5.73613 17.6772 6.75002C18.1147 7.76391 18.3334 8.84724 18.3334 10C18.3334 11.1389 18.1147 12.2153 17.6772 13.2292C17.2397 14.2431 16.6459 15.1285 15.8959 15.8854C15.1459 16.6424 14.264 17.2396 13.2501 17.6771C12.2362 18.1146 11.1529 18.3334 10.0001 18.3334ZM10.0001 17.0834C11.9723 17.0834 13.6459 16.3924 15.0209 15.0104C16.3959 13.6285 17.0834 11.9584 17.0834 10C17.0834 8.0278 16.3959 6.35419 15.0209 4.97919C13.6459 3.60419 11.9723 2.91669 10.0001 2.91669C8.04175 2.91669 6.37161 3.60419 4.98966 4.97919C3.60772 6.35419 2.91675 8.0278 2.91675 10C2.91675 11.9584 3.60772 13.6285 4.98966 15.0104C6.37161 16.3924 8.04175 17.0834 10.0001 17.0834Z" fill="#E17055"/>
</g>
</svg>
