<svg width="44" height="44" viewBox="0 0 44 44" fill="none" xmlns="http://www.w3.org/2000/svg">
<g id="Group 6867">
<rect id="Rectangle 8" width="44" height="44" rx="22" fill="#E17055"/>
<g id="Mask group">
<mask id="mask0_2720_17556" style="mask-type:alpha" maskUnits="userSpaceOnUse" x="7" y="7" width="30" height="30">
<rect id="Rectangle 840" x="7.33325" y="7.33334" width="29.3333" height="29.3333" fill="#D9D9D9"/>
</mask>
<g mask="url(#mask0_2720_17556)">
<g id="Group 6865">
<path id="Ellipse 19" d="M21.5301 11.7292C23.3869 11.7292 25.2021 12.2799 26.746 13.3115C28.2899 14.3431 29.4933 15.8094 30.2039 17.5249C30.9144 19.2404 31.1004 21.1281 30.7381 22.9493C30.3759 24.7705 29.4817 26.4433 28.1687 27.7563C26.8557 29.0693 25.1828 29.9635 23.3616 30.3258C21.5405 30.688 19.6528 30.5021 17.9372 29.7915C16.2217 29.0809 14.7555 27.8776 13.7238 26.3336C12.6922 24.7897 12.1416 22.9746 12.1416 21.1177C12.1444 18.6286 13.1345 16.2422 14.8945 14.4822C16.6546 12.7221 19.0409 11.7321 21.5301 11.7292ZM21.5301 28.4199C22.9743 28.4199 24.3861 27.9917 25.587 27.1893C26.7878 26.3869 27.7238 25.2465 28.2764 23.9121C28.8291 22.5778 28.9737 21.1096 28.692 19.6931C28.4102 18.2766 27.7148 16.9755 26.6935 15.9542C25.6723 14.933 24.3711 14.2375 22.9546 13.9558C21.5382 13.674 20.0699 13.8186 18.7356 14.3713C17.4013 14.924 16.2608 15.8599 15.4585 17.0608C14.6561 18.2616 14.2278 19.6735 14.2278 21.1177C14.2301 23.0537 15.0002 24.9097 16.3691 26.2786C17.7381 27.6475 19.5941 28.4176 21.5301 28.4199Z" fill="#FAFAFA"/>
<path id="Path 445" d="M31.9581 32.5933C31.821 32.5936 31.6852 32.5667 31.5585 32.5143C31.4318 32.4618 31.3168 32.3849 31.22 32.2878L26.6819 27.7497C26.4959 27.5522 26.3942 27.2899 26.3983 27.0187C26.4024 26.7474 26.512 26.4883 26.7039 26.2965C26.8957 26.1046 27.1547 25.995 27.426 25.9909C27.6973 25.9868 27.9595 26.0886 28.1571 26.2745L32.6952 30.8126C32.8408 30.9585 32.9399 31.1444 32.9801 31.3466C33.0202 31.5488 32.9995 31.7584 32.9207 31.9489C32.8418 32.1394 32.7083 32.3022 32.537 32.4169C32.3657 32.5316 32.1642 32.593 31.9581 32.5933Z" fill="#FAFAFA"/>
</g>
</g>
</g>
</g>
</svg>



