<svg width="20" height="20" viewBox="0 0 20 20" fill="none" xmlns="http://www.w3.org/2000/svg">
<g id="share">
<path id="share_2" d="M15 12.5C14.1108 12.5 13.3341 12.9683 12.8916 13.6675L7.32992 10.8866C7.43575 10.61 7.5 10.3133 7.5 9.99913C7.5 9.6858 7.43575 9.38829 7.32992 9.11163L12.8916 6.33079C13.335 7.03079 14.1108 7.49829 15 7.49829C16.3808 7.49829 17.5 6.37912 17.5 4.99829C17.5 3.61746 16.3808 2.49829 15 2.49829C13.6192 2.49829 12.5 3.61746 12.5 4.99829C12.5 5.04079 12.5107 5.08081 12.5124 5.12247L6.58997 8.08331C6.15663 7.72331 5.6075 7.49748 5 7.49748C3.61917 7.49748 2.5 8.61664 2.5 9.99748C2.5 11.3783 3.61917 12.4975 5 12.4975C5.6075 12.4975 6.15663 12.2725 6.58997 11.9116L12.5124 14.8725C12.5107 14.9141 12.5 14.9541 12.5 14.9966C12.5 16.3775 13.6192 17.4966 15 17.4966C16.3808 17.4966 17.5 16.3775 17.5 14.9966C17.5 13.6158 16.3808 12.5 15 12.5Z" fill="#010101"/>
</g>
</svg>
