<svg width="21" height="21" viewBox="0 0 21 21" fill="none" xmlns="http://www.w3.org/2000/svg">
<g id="buildings-alt">
<path id="buildings-alt_2" d="M18.8332 16.8982H18.6248V9.18988C18.6248 7.73321 17.7898 6.89821 16.3332 6.89821H16.1248V5.02321C16.1248 3.00821 15.0148 1.89821 12.9998 1.89821H7.99984C5.98484 1.89821 4.87484 3.00821 4.87484 5.02321V6.89821H4.6665C3.20984 6.89821 2.37484 7.73321 2.37484 9.18988V16.8982H2.1665C1.8215 16.8982 1.5415 17.1782 1.5415 17.5232C1.5415 17.8682 1.8215 18.1482 2.1665 18.1482H18.8332C19.1782 18.1482 19.4582 17.8682 19.4582 17.5232C19.4582 17.1782 19.1782 16.8982 18.8332 16.8982ZM6.12484 5.02321C6.12484 3.70904 6.68567 3.14821 7.99984 3.14821H12.9998C14.314 3.14821 14.8748 3.70904 14.8748 5.02321V16.8982H12.7915V15.0232C12.7915 13.759 11.764 12.7315 10.4998 12.7315C9.23567 12.7315 8.20817 13.759 8.20817 15.0232V16.8982H6.12484V5.02321ZM11.5415 16.8982H9.45817V15.0232C9.45817 14.449 9.92567 13.9815 10.4998 13.9815C11.074 13.9815 11.5415 14.449 11.5415 15.0232V16.8982ZM3.62484 9.18988C3.62484 8.43071 3.90734 8.14821 4.6665 8.14821H4.87484V16.8982H3.62484V9.18988ZM16.1248 16.8982V8.14821H16.3332C17.0923 8.14821 17.3748 8.43071 17.3748 9.18988V16.8982H16.1248ZM7.7915 5.85654C7.7915 5.51154 8.0715 5.23154 8.4165 5.23154H9.24984C9.59484 5.23154 9.87484 5.51154 9.87484 5.85654C9.87484 6.20154 9.59484 6.48154 9.24984 6.48154H8.4165C8.0715 6.48154 7.7915 6.20154 7.7915 5.85654ZM11.1248 5.85654C11.1248 5.51154 11.4048 5.23154 11.7498 5.23154H12.5832C12.9282 5.23154 13.2082 5.51154 13.2082 5.85654C13.2082 6.20154 12.9282 6.48154 12.5832 6.48154H11.7498C11.4048 6.48154 11.1248 6.20154 11.1248 5.85654ZM7.7915 8.35654C7.7915 8.01154 8.0715 7.73154 8.4165 7.73154H9.24984C9.59484 7.73154 9.87484 8.01154 9.87484 8.35654C9.87484 8.70154 9.59484 8.98154 9.24984 8.98154H8.4165C8.0715 8.98154 7.7915 8.70154 7.7915 8.35654ZM11.1248 8.35654C11.1248 8.01154 11.4048 7.73154 11.7498 7.73154H12.5832C12.9282 7.73154 13.2082 8.01154 13.2082 8.35654C13.2082 8.70154 12.9282 8.98154 12.5832 8.98154H11.7498C11.4048 8.98154 11.1248 8.70154 11.1248 8.35654ZM7.7915 10.8565C7.7915 10.5115 8.0715 10.2315 8.4165 10.2315H9.24984C9.59484 10.2315 9.87484 10.5115 9.87484 10.8565C9.87484 11.2015 9.59484 11.4815 9.24984 11.4815H8.4165C8.0715 11.4815 7.7915 11.2015 7.7915 10.8565ZM11.1248 10.8565C11.1248 10.5115 11.4048 10.2315 11.7498 10.2315H12.5832C12.9282 10.2315 13.2082 10.5115 13.2082 10.8565C13.2082 11.2015 12.9282 11.4815 12.5832 11.4815H11.7498C11.4048 11.4815 11.1248 11.2015 11.1248 10.8565Z" fill="#8C9196"/>
</g>
</svg>
