<svg width="21" height="21" viewBox="0 0 21 21" fill="none" xmlns="http://www.w3.org/2000/svg">
<g id="credit-card-convert">
<path id="credit-card-convert_2" d="M11.3332 14.8982H4.6665C3.35234 14.8982 2.7915 14.3374 2.7915 13.0232V8.6482H16.5415V8.85653C16.5415 9.20153 16.8215 9.48153 17.1665 9.48153C17.5115 9.48153 17.7915 9.20153 17.7915 8.85653V6.35653C17.7915 4.34153 16.6815 3.23153 14.6665 3.23153H4.6665C2.6515 3.23153 1.5415 4.34153 1.5415 6.35653V13.0232C1.5415 15.0382 2.6515 16.1482 4.6665 16.1482H11.3332C11.6782 16.1482 11.9582 15.8682 11.9582 15.5232C11.9582 15.1782 11.6782 14.8982 11.3332 14.8982ZM4.6665 4.48153H14.6665C15.9807 4.48153 16.5415 5.04236 16.5415 6.35653V7.3982H2.7915V6.35653C2.7915 5.04236 3.35234 4.48153 4.6665 4.48153ZM7.99984 11.5649C8.34484 11.5649 8.62484 11.8449 8.62484 12.1899C8.62484 12.5349 8.34484 12.8149 7.99984 12.8149H5.49984C5.15484 12.8149 4.87484 12.5349 4.87484 12.1899C4.87484 11.8449 5.15484 11.5649 5.49984 11.5649H7.99984ZM19.4107 16.1174C19.5073 16.3507 19.454 16.6199 19.2749 16.7982L18.4415 17.6316C18.3199 17.7532 18.1598 17.8149 17.9998 17.8149C17.8398 17.8149 17.6798 17.7541 17.5581 17.6316C17.3823 17.4557 17.3332 17.2007 17.4107 16.9815H15.0832C14.049 16.9815 13.2082 16.1407 13.2082 15.1065V14.6899C13.2082 14.3449 13.4882 14.0649 13.8332 14.0649C14.1782 14.0649 14.4582 14.3449 14.4582 14.6899V15.1065C14.4582 15.4515 14.7382 15.7315 15.0832 15.7315H18.8332C19.0857 15.7315 19.314 15.884 19.4107 16.1174ZM19.4582 13.8565V14.2732C19.4582 14.6182 19.1782 14.8982 18.8332 14.8982C18.4882 14.8982 18.2082 14.6182 18.2082 14.2732V13.8565C18.2082 13.5115 17.9282 13.2315 17.5832 13.2315H13.8332C13.5807 13.2315 13.3523 13.079 13.2557 12.8457C13.159 12.6124 13.2123 12.3432 13.3915 12.1648L14.2248 11.3315C14.469 11.0873 14.8648 11.0873 15.109 11.3315C15.2848 11.5073 15.334 11.7624 15.2565 11.9815H17.5832C18.6173 11.9815 19.4582 12.8224 19.4582 13.8565Z" fill="#8C9196"/>
</g>
</svg>
