<svg width="21" height="21" viewBox="0 0 21 21" fill="none" xmlns="http://www.w3.org/2000/svg">
<g id="heart">
<path id="heart_2" d="M17.2468 4.98153C16.4252 3.97986 15.2393 3.44655 13.8177 3.43988C13.8118 3.43988 13.8052 3.43988 13.7994 3.43988C12.1485 3.43988 11.0694 4.47074 10.501 5.3899C9.93269 4.47074 8.85351 3.43988 7.20268 3.43988C7.19601 3.43988 7.18937 3.43988 7.18437 3.43988C5.76437 3.44655 4.57934 3.97989 3.75684 4.98239C2.731 6.23322 2.34767 8.16819 2.73267 10.1574C3.74017 15.3499 10.0602 18.2807 10.3285 18.4032C10.3827 18.4282 10.4427 18.4407 10.501 18.4407C10.5594 18.4407 10.6194 18.4282 10.6735 18.4032C10.9419 18.2807 17.2619 15.3507 18.2686 10.1574C18.6544 8.16653 18.2727 6.23236 17.2468 4.98153ZM17.4494 9.99821C16.6135 14.3132 11.5094 17.0565 10.5002 17.5599C9.49104 17.0565 4.3869 14.3132 3.55023 9.99821C3.21107 8.24988 3.52858 6.57237 4.40025 5.5107C5.06942 4.69487 6.00691 4.27905 7.18691 4.27321C7.19274 4.27321 7.19766 4.27321 7.20349 4.27321C9.33349 4.27321 10.0752 6.38902 10.106 6.47902C10.2202 6.81736 10.7819 6.81736 10.8952 6.47902C10.926 6.38902 11.6686 4.27321 13.7977 4.27321C13.8036 4.27321 13.8086 4.27321 13.8144 4.27321C14.9961 4.27905 15.9344 4.69487 16.6027 5.5107C17.4727 6.5707 17.7894 8.24904 17.4494 9.99821Z" fill="#8C9196"/>
</g>
</svg>
