<svg width="21" height="21" viewBox="0 0 21 21" fill="none" xmlns="http://www.w3.org/2000/svg">
<g id="list">
<path id="list_2" d="M18 5.93985H8.83333C8.37333 5.93985 8 5.56652 8 5.10652C8 4.64652 8.37333 4.27319 8.83333 4.27319H18C18.46 4.27319 18.8333 4.64652 18.8333 5.10652C18.8333 5.56652 18.46 5.93985 18 5.93985ZM18.8333 10.5232C18.8333 10.0632 18.46 9.68985 18 9.68985H8.83333C8.37333 9.68985 8 10.0632 8 10.5232C8 10.9832 8.37333 11.3565 8.83333 11.3565H18C18.46 11.3565 18.8333 10.9832 18.8333 10.5232ZM18.8333 15.9399C18.8333 15.4799 18.46 15.1065 18 15.1065H8.83333C8.37333 15.1065 8 15.4799 8 15.9399C8 16.3999 8.37333 16.7732 8.83333 16.7732H18C18.46 16.7732 18.8333 16.3999 18.8333 15.9399ZM5.5 5.10652C5.5 4.41652 4.94 3.85652 4.25 3.85652C3.56 3.85652 3 4.41652 3 5.10652C3 5.79652 3.56 6.35652 4.25 6.35652C4.94 6.35652 5.5 5.79652 5.5 5.10652ZM5.5 10.5232C5.5 9.83319 4.94 9.27319 4.25 9.27319C3.56 9.27319 3 9.83319 3 10.5232C3 11.2132 3.56 11.7732 4.25 11.7732C4.94 11.7732 5.5 11.2132 5.5 10.5232ZM5.5 15.9399C5.5 15.2499 4.94 14.6899 4.25 14.6899C3.56 14.6899 3 15.2499 3 15.9399C3 16.6299 3.56 17.1899 4.25 17.1899C4.94 17.1899 5.5 16.6299 5.5 15.9399Z" fill="#8C9196"/>
</g>
</svg>
