<svg width="21" height="20" viewBox="0 0 21 20" fill="none" xmlns="http://www.w3.org/2000/svg">
<g id="list">
<path id="list_2" d="M18.4199 5.41666H9.25325C8.79326 5.41666 8.41992 5.04333 8.41992 4.58333C8.41992 4.12333 8.79326 3.74999 9.25325 3.74999H18.4199C18.8799 3.74999 19.2533 4.12333 19.2533 4.58333C19.2533 5.04333 18.8799 5.41666 18.4199 5.41666ZM19.2533 9.99999C19.2533 9.53999 18.8799 9.16666 18.4199 9.16666H9.25325C8.79326 9.16666 8.41992 9.53999 8.41992 9.99999C8.41992 10.46 8.79326 10.8333 9.25325 10.8333H18.4199C18.8799 10.8333 19.2533 10.46 19.2533 9.99999ZM19.2533 15.4167C19.2533 14.9567 18.8799 14.5833 18.4199 14.5833H9.25325C8.79326 14.5833 8.41992 14.9567 8.41992 15.4167C8.41992 15.8767 8.79326 16.25 9.25325 16.25H18.4199C18.8799 16.25 19.2533 15.8767 19.2533 15.4167ZM5.91992 4.58333C5.91992 3.89333 5.35992 3.33333 4.66992 3.33333C3.97992 3.33333 3.41992 3.89333 3.41992 4.58333C3.41992 5.27333 3.97992 5.83333 4.66992 5.83333C5.35992 5.83333 5.91992 5.27333 5.91992 4.58333ZM5.91992 9.99999C5.91992 9.30999 5.35992 8.74999 4.66992 8.74999C3.97992 8.74999 3.41992 9.30999 3.41992 9.99999C3.41992 10.69 3.97992 11.25 4.66992 11.25C5.35992 11.25 5.91992 10.69 5.91992 9.99999ZM5.91992 15.4167C5.91992 14.7267 5.35992 14.1667 4.66992 14.1667C3.97992 14.1667 3.41992 14.7267 3.41992 15.4167C3.41992 16.1067 3.97992 16.6667 4.66992 16.6667C5.35992 16.6667 5.91992 16.1067 5.91992 15.4167Z" fill="#2D2A2A"/>
</g>
</svg>
