<svg width="21" height="21" viewBox="0 0 21 21" fill="none" xmlns="http://www.w3.org/2000/svg">
<g id="log-out">
<path id="log-out_2" d="M13.625 14.1899V15.0232C13.625 17.0382 12.515 18.1482 10.5 18.1482H5.5C3.485 18.1482 2.375 17.0382 2.375 15.0232V5.02319C2.375 3.00819 3.485 1.89819 5.5 1.89819H10.5C12.515 1.89819 13.625 3.00819 13.625 5.02319V5.85653C13.625 6.20153 13.345 6.48153 13 6.48153C12.655 6.48153 12.375 6.20153 12.375 5.85653V5.02319C12.375 3.70903 11.8142 3.14819 10.5 3.14819H5.5C4.18583 3.14819 3.625 3.70903 3.625 5.02319V15.0232C3.625 16.3374 4.18583 16.8982 5.5 16.8982H10.5C11.8142 16.8982 12.375 16.3374 12.375 15.0232V14.1899C12.375 13.8449 12.655 13.5649 13 13.5649C13.345 13.5649 13.625 13.8449 13.625 14.1899ZM18.5767 10.2623C18.64 10.1098 18.64 9.93735 18.5767 9.78485C18.545 9.70818 18.4992 9.63903 18.4417 9.58153L15.9417 7.08153C15.6975 6.83736 15.3017 6.83736 15.0575 7.08153C14.8133 7.32569 14.8133 7.72153 15.0575 7.9657L16.4909 9.39903H7.16667C6.82167 9.39903 6.54167 9.67903 6.54167 10.024C6.54167 10.369 6.82167 10.649 7.16667 10.649H16.4909L15.0575 12.0824C14.8133 12.3265 14.8133 12.7224 15.0575 12.9665C15.1792 13.0882 15.3392 13.1499 15.4992 13.1499C15.6592 13.1499 15.8192 13.089 15.9408 12.9665L18.4408 10.4665C18.4992 10.4074 18.545 10.3382 18.5767 10.2623Z" fill="#8C9196"/>
</g>
</svg>
