<svg width="21" height="21" viewBox="0 0 21 21" fill="none" xmlns="http://www.w3.org/2000/svg">
<g id="money-bills">
<path id="money-bills_2" d="M16.1108 6.07905C16.0383 4.46072 15.0942 3.56486 13.4167 3.56486H5.08333C3.33667 3.56486 2.375 4.52653 2.375 6.27319V12.1065C2.375 13.784 3.27086 14.7282 4.88919 14.8007C4.96169 16.419 5.90583 17.3149 7.58333 17.3149H15.9167C17.6633 17.3149 18.625 16.3532 18.625 14.6065V8.77319C18.625 7.09569 17.7291 6.15155 16.1108 6.07905ZM3.625 12.1065V6.27319C3.625 5.22403 4.03417 4.81486 5.08333 4.81486H13.4167C14.4658 4.81486 14.875 5.22403 14.875 6.27319V12.1065C14.875 13.1557 14.4658 13.5649 13.4167 13.5649H5.08333C4.03417 13.5649 3.625 13.1557 3.625 12.1065ZM17.375 14.6065C17.375 15.6557 16.9667 16.0649 15.9167 16.0649H7.58333C6.60917 16.0649 6.19167 15.7049 6.13583 14.8149H13.4167C15.1633 14.8149 16.125 13.8532 16.125 12.1065V7.32569C17.0158 7.38153 17.375 7.79819 17.375 8.77319V14.6065ZM5.08333 10.0232C4.62333 10.0232 4.25 9.64986 4.25 9.18986C4.25 8.72986 4.62333 8.35653 5.08333 8.35653C5.54333 8.35653 5.91667 8.72986 5.91667 9.18986C5.91667 9.64986 5.54333 10.0232 5.08333 10.0232ZM12.5833 9.18986C12.5833 8.72986 12.9567 8.35653 13.4167 8.35653C13.8767 8.35653 14.25 8.72986 14.25 9.18986C14.25 9.64986 13.8767 10.0232 13.4167 10.0232C12.9567 10.0232 12.5833 9.64986 12.5833 9.18986ZM9.25 11.8982C10.7433 11.8982 11.9583 10.6832 11.9583 9.18986C11.9583 7.69653 10.7433 6.48153 9.25 6.48153C7.75667 6.48153 6.54167 7.69653 6.54167 9.18986C6.54167 10.6832 7.75667 11.8982 9.25 11.8982ZM9.25 7.73153C10.0542 7.73153 10.7083 8.38569 10.7083 9.18986C10.7083 9.99403 10.0542 10.6482 9.25 10.6482C8.44583 10.6482 7.79167 9.99403 7.79167 9.18986C7.79167 8.38569 8.44583 7.73153 9.25 7.73153Z" fill="#8C9196"/>
</g>
</svg>
