<svg width="21" height="21" viewBox="0 0 21 21" fill="none" xmlns="http://www.w3.org/2000/svg">
<g id="shield">
<path id="shield_2" d="M10.5 19.4816C10.4333 19.4816 10.3666 19.4707 10.3024 19.4491C8.97828 19.0074 2.375 16.4582 2.375 9.59657V4.68995C2.375 4.39245 2.58502 4.13486 2.87752 4.07736C6.94419 3.26403 8.38588 2.54912 10.2117 1.64328C10.3884 1.55578 10.6216 1.54419 10.7966 1.63169C12.5975 2.53919 14.02 3.25653 18.1233 4.07736C18.4158 4.1357 18.6258 4.39245 18.6258 4.68995V9.59738C18.6258 16.4591 12.0225 19.0082 10.6984 19.4499C10.6334 19.4707 10.5667 19.4816 10.5 19.4816ZM3.625 5.2V9.59657C3.625 15.3174 8.97333 17.6467 10.5 18.1942C12.0267 17.6467 17.375 15.3166 17.375 9.59657V5.2C13.6908 4.42917 12.1416 3.7057 10.5124 2.8882C8.78158 3.74403 7.27917 4.43667 3.625 5.2Z" fill="#8C9196"/>
</g>
</svg>
