<svg width="21" height="21" viewBox="0 0 21 21" fill="none" xmlns="http://www.w3.org/2000/svg">
<g id="user">
<path id="user_2" d="M10.5075 9.2732C12.3459 9.2732 13.8409 7.7782 13.8409 5.93987C13.8409 4.10154 12.3459 2.60654 10.5075 2.60654C8.66919 2.60654 7.17419 4.10154 7.17419 5.93987C7.17419 7.7782 8.66919 9.2732 10.5075 9.2732ZM10.5075 3.43987C11.8859 3.43987 13.0075 4.56154 13.0075 5.93987C13.0075 7.3182 11.8859 8.43987 10.5075 8.43987C9.12919 8.43987 8.00753 7.3182 8.00753 5.93987C8.00753 4.56154 9.12836 3.43987 10.5075 3.43987ZM12.1667 10.9399H8.83333C5.45 10.9399 4.25 13.4174 4.25 15.5391C4.25 17.4366 5.25921 18.4399 7.16921 18.4399H13.8308C15.7408 18.4399 16.75 17.4366 16.75 15.5391C16.75 13.4174 15.55 10.9399 12.1667 10.9399ZM13.8308 17.6065H7.16921C5.72671 17.6065 5.08333 16.9691 5.08333 15.5391C5.08333 14.6557 5.35333 11.7732 8.83333 11.7732H12.1667C15.7358 11.7732 15.9167 14.9099 15.9167 15.5391C15.9167 16.9691 15.2741 17.6065 13.8308 17.6065Z" fill="#8C9196"/>
</g>
</svg>
